<?xml version="1.0" encoding="UTF-8"?>
<svg id="Layer_2" data-name="Layer 2" xmlns="http://www.w3.org/2000/svg" viewBox="0 0 44.90362 38.84088">
  <g id="Layer_2-2" data-name="Layer 2">
    <path d="M38.16308,28.29418c-.27082,0-.54544-.04313-.80792-.13428-.97482-.339-1.40267-1.21281-.95585-1.95177l4.4227-7.31194-4.41891-7.20929c-.45137-.73723-.02959-1.61277.94295-1.95522.97254-.34331,2.1279-.02243,2.58004.7148l4.7967,7.82547c.23972.39076.24124.84189.00379,1.2338l-4.7967,7.92956c-.32696.54027-1.03095.85886-1.7668.85886Z" fill="#c9c942"/>
    <path d="M7.10439,28.24214c-.71461,0-1.40191-.2999-1.74101-.81774L.20255,19.54689c-.27082-.41376-.27007-.89969.00228-1.31287l5.16083-7.82547c.4802-.72774,1.64467-1.02218,2.60583-.65874.95888.36373,1.34805,1.24789.86861,1.97506l-4.72842,7.16961,4.7307,7.2205c.47717.72803.08496,1.61162-.87544,1.97333-.27765.10437-.57275.15383-.86254.15383Z" fill="#c9c942"/>
    <path d="M31.70184,38.84088c-.90728,0-1.75971-.60495-2.27964-1.61699l-7.69831-14.98413c-.96281-.00095-7.40954-.00095-7.40954-.00095-1.41263,0-2.51497-1.4906-2.51497-3.3935,0-1.92846,1.09331-3.38261,2.54204-3.38261.18673,0,.50882.00426.92671.00994.75595.01041,1.83191.02509,2.98422.02509,4.56345,0,5.51377-.23621,5.69633-.30816,1.6903-.93393,2.62326-2.67826,2.45457-4.64648-.12981-1.51143-.99266-3.18854-2.62742-3.52699-.21103-.04402-.89895-.09609-2.97867-.09609-.7018,0-1.45011.00521-2.1776.01041-.69347.00473-1.3689.00947-1.96796.00947-1.2252,0-1.86662-.01941-2.21439-.06722-2.28659-.31289-3.73392-2.84677-3.99215-4.46045l-.12912-.80849.33875-.68732q.4519-.91642,6.17323-.91642c5.10699,0,7.96557.06958,8.49591.20733,3.41114.97512,5.83031,4.09833,6.49949,8.36186.67126,4.28294-.60184,8.86741-3.16818,11.40839-.22699.22532-.55047.52543-.87604.82222l6.19891,12.06967c.42622.8298.59074,1.83663.46162,2.83446-.12842.99831-.53451,1.86834-1.14329,2.44963-.46995.44969-1.02112.68732-1.5945.68732Z" fill="#c9c942"/>
  </g>
</svg>